<svg width="17" height="14" viewBox="0 0 17 14" fill="none" xmlns="http://www.w3.org/2000/svg">
<path d="M16.8216 6.8165L12.7808 2.53552C12.5325 2.27212 12.1179 2.26011 11.8545 2.50866C11.5916 2.75701 11.5793 3.17176 11.8279 3.43496L15.4442 7.266L11.8279 11.0975C11.5793 11.3607 11.5916 11.7752 11.8545 12.0238C11.9812 12.1433 12.1431 12.2024 12.3043 12.2024C12.4784 12.2024 12.6522 12.1334 12.7809 11.9973L16.8216 7.71614C17.0598 7.46346 17.0598 7.06898 16.8216 6.8165Z" fill="white"/>
<path d="M5.17258 10.7768L1.55648 6.94549L5.17258 3.11425C5.42093 2.85105 5.40892 2.43627 5.14573 2.18795C4.88274 1.93961 4.46774 1.95162 4.21943 2.21481L0.17871 6.49579C-0.0595699 6.74827 -0.0595699 7.14296 0.17871 7.39547L4.21964 11.6767C4.3485 11.8132 4.52214 11.882 4.69623 11.882C4.85741 11.882 5.01928 11.8225 5.14573 11.7031C5.40916 11.4547 5.42093 11.04 5.17258 10.7768Z" fill="white"/>
<path d="M9.79645 0.00748691C9.43889 -0.0466738 9.10427 0.198807 9.04966 0.556363L7.12759 13.1372C7.07298 13.495 7.3187 13.8294 7.67647 13.884C7.71012 13.889 7.74329 13.8914 7.77629 13.8914C8.09453 13.8914 8.37366 13.6593 8.42325 13.3351L10.3453 0.75427C10.3999 0.396475 10.1542 0.0620913 9.79645 0.00748691Z" fill="white"/>
</svg>
