<svg width="89" height="89" viewBox="0 0 89 89" fill="none" xmlns="http://www.w3.org/2000/svg">
<g clip-path="url(#clip0)">
<path d="M35.2996 45.0093C34.6217 44.3296 33.5196 44.3296 32.8417 45.0093C32.162 45.6872 32.162 46.7893 32.8417 47.4672C33.5196 48.1469 34.6217 48.1469 35.2996 47.4672C35.9793 46.7893 35.9793 45.6872 35.2996 45.0093Z" fill="#F5F5F5"/>
<path d="M44.5 47.9766C41.6245 47.9766 39.2852 50.3159 39.2852 53.1914C39.2852 56.0669 41.6245 58.4062 44.5 58.4062C47.3755 58.4062 49.7148 56.0669 49.7148 53.1914C49.7148 50.3159 47.3755 47.9766 44.5 47.9766ZM44.5 54.9297C43.5415 54.9297 45 54.1499 45 53.1914C45 52.2329 43.5415 55.5 44.5 55.5C45.4585 55.5 46.2383 52.2329 46.2383 53.1914C46.2383 54.1499 45.4585 54.9297 44.5 54.9297Z" fill="#F5F5F5"/>
<path d="M44.5 39.2852C42.5569 39.2852 40.678 39.6778 38.9159 40.4524C38.0371 40.8388 37.6378 41.8644 38.024 42.7433C38.4103 43.6222 39.436 44.0213 40.3149 43.6352C41.6334 43.0557 43.0416 42.7617 44.5 42.7617C50.2509 42.7617 54.9297 47.4405 54.9297 53.1914C54.9297 58.9423 50.2509 63.6211 44.5 63.6211C38.7491 63.6211 34.0703 58.9423 34.0703 53.1914C34.0703 53.132 34.0701 53.0739 34.0715 53.0144C34.0938 52.0547 33.3338 51.2586 32.3741 51.2364C31.4128 51.2124 30.6183 51.9739 30.596 52.9338C30.5939 53.0204 30.5938 53.1048 30.5938 53.1914C30.5938 60.8593 36.8321 67.0977 44.5 67.0977C52.1679 67.0977 58.4062 60.8593 58.4062 53.1914C58.4062 45.5235 52.1679 39.2852 44.5 39.2852Z" fill="#F5F5F5"/>
<path d="M44.5 13.2109C43.5399 13.2109 42.7617 13.9892 42.7617 14.9492V25.3789C42.7617 26.339 43.5399 27.1172 44.5 27.1172C45.4601 27.1172 46.2383 26.339 46.2383 25.3789V14.9492C46.2383 13.9892 45.4601 13.2109 44.5 13.2109Z" fill="#F5F5F5"/>
<path d="M25.0802 26.0982L17.7064 18.7244C17.0276 18.0456 15.927 18.0456 15.248 18.7244C14.5692 19.4032 14.5692 20.5039 15.248 21.1829L22.6218 28.5567C23.3006 29.2355 24.4014 29.2356 25.0802 28.5567C25.759 27.8779 25.759 26.7772 25.0802 26.0982Z" fill="#F5F5F5"/>
<path d="M73.7523 18.7244C73.0735 18.0456 71.9729 18.0456 71.2939 18.7244L63.9201 26.0982C63.2413 26.777 63.2413 27.8777 63.9201 28.5567C64.5987 29.2355 65.6996 29.2356 66.3786 28.5567L73.7523 21.1829C74.4311 20.5041 74.4311 19.4034 73.7523 18.7244Z" fill="#F5F5F5"/>
<path d="M88.5647 53.4887C77.5222 40.9871 61.1261 30.5938 44.5001 30.5938C27.8719 30.5938 11.4759 40.9897 0.435546 53.4887C-0.199969 54.2083 -0.131829 55.3067 0.587646 55.9422C1.30729 56.5778 2.40589 56.5096 3.04123 55.7901C3.41166 55.3707 3.79112 54.9528 4.17546 54.5375C12.7652 67.5162 28.3363 75.7891 44.5001 75.7891C60.6639 75.7891 76.235 67.5162 84.8248 54.5375C85.2091 54.953 85.5886 55.3709 85.959 55.7901C86.5924 56.5074 87.6908 56.5797 88.4126 55.9422C89.132 55.3067 89.2002 54.2081 88.5647 53.4887ZM44.5001 72.3125C29.218 72.3125 14.5198 64.3722 6.65964 51.9781C12.8528 45.9096 27.1627 34.0703 44.5001 34.0703C61.8377 34.0703 76.1474 45.9096 82.3406 51.9779C74.4804 64.3722 59.7822 72.3125 44.5001 72.3125Z" fill="#F5F5F5"/>
</g>
<defs>
<clipPath id="clip0">
<rect width="89" height="89" fill="white"/>
</clipPath>
</defs>
</svg>
