<svg width="144" height="123" viewBox="0 0 144 123" fill="none" xmlns="http://www.w3.org/2000/svg">
<path d="M34.1006 74.2126L20.1146 110.653L70.5414 88.1986L34.1006 74.2126ZM33.525 72.92L73.155 88.13L18.315 112.55L33.525 72.92Z" fill="#010101"/>
<path d="M28.5712 61.7951L15.8092 95.0468L61.8228 74.5571L28.5712 61.7951ZM27.42 59.2099L67.05 74.4199L12.21 98.8399L27.42 59.2099Z" fill="#010101"/>
<path d="M92.1006 27.2125L78.1146 63.6533L128.541 41.1985L92.1006 27.2125ZM91.525 25.9199L131.155 41.1299L76.315 65.5499L91.525 25.9199Z" fill="#010101"/>
<path d="M86.5712 14.7951L73.8092 48.0468L119.823 27.5571L86.5712 14.7951ZM85.42 12.2099L125.05 27.4199L70.21 51.8399L85.42 12.2099Z" fill="#010101"/>
<path d="M104.101 84.2127L90.1146 120.654L140.541 98.1987L104.101 84.2127ZM103.525 82.9201L143.155 98.1301L88.315 122.55L103.525 82.9201Z" fill="#010101"/>
<path d="M98.5712 71.7952L85.8092 105.047L131.823 84.5572L98.5712 71.7952ZM97.42 69.21L137.05 84.42L82.21 108.84L97.42 69.21Z" fill="#010101"/>
</svg>
