<svg width="25" height="25" viewBox="0 0 25 25" fill="none" xmlns="http://www.w3.org/2000/svg">
<path d="M9.98535 22.3928V24.9249L9.37309 24.4303C9.27849 24.3538 7.02763 22.5264 4.7451 19.9059C1.59645 16.2909 0 13.0459 0 10.2613V9.98535C0 4.47941 4.47941 0 9.98535 0C15.4913 0 19.9707 4.47941 19.9707 9.98535V10.2613C19.9707 10.4952 19.9583 10.7327 19.9358 10.973L17.9831 9.19151C17.5831 5.13115 14.1491 1.94836 9.98535 1.94836C5.55382 1.94836 1.94836 5.55382 1.94836 9.98535V10.2613C1.94836 14.9668 8.01105 20.6631 9.98535 22.3928ZM15.9765 20.9934H18.899V18.071H15.9765V20.9934ZM9.98535 5.84507C12.2683 5.84507 14.1256 7.70245 14.1256 9.98535C14.1256 12.2683 12.2683 14.1256 9.98535 14.1256C7.70245 14.1256 5.84507 12.2683 5.84507 9.98535C5.84507 7.70245 7.70245 5.84507 9.98535 5.84507ZM9.98535 7.79343C8.77666 7.79343 7.79343 8.77666 7.79343 9.98535C7.79343 11.1938 8.77666 12.1773 9.98535 12.1773C11.1938 12.1773 12.1773 11.1938 12.1773 9.98535C12.1773 8.77666 11.1938 7.79343 9.98535 7.79343ZM23.687 19.6695L23.1392 19.1698V22.2977C23.1392 23.7541 21.9542 24.939 20.4977 24.939H14.3291C12.8727 24.939 11.6877 23.7541 11.6877 22.2977V19.1698L11.1399 19.6695L9.82685 18.2302L17.4133 11.3091L25 18.2302L23.687 19.6695ZM21.1908 17.3923L17.4133 13.9463L13.636 17.3923V22.2975C13.636 22.6797 13.9469 22.9906 14.3291 22.9906H20.4977C20.8799 22.9906 21.1908 22.6797 21.1908 22.2975V17.3923Z" fill="#CC1701"/>
</svg>
