<svg width="47" height="47" viewBox="0 0 47 47" fill="none" xmlns="http://www.w3.org/2000/svg">
<path d="M23.9347 0.131717C23.806 0.0458332 23.6547 0 23.4999 0C23.3452 0 23.1939 0.0458332 23.0652 0.131717L2.11499 14.1001H0V18.8001H1.56666V21.9334H3.13333V39.1667H1.56666V42.3H0V47H46.9999V42.3H45.4332V39.1667H43.8666V21.9334H45.4332V18.8001H46.9999V14.1001H44.8849L23.9347 0.131717ZM23.4999 1.72345L42.0649 14.1001H4.93499L23.4999 1.72345ZM3.13333 40.7333H43.8666V42.3H3.13333V40.7333ZM12.5333 21.9334V39.1667H7.83331V21.9334H9.39998V18.8001H10.9666V21.9334H12.5333ZM7.83331 20.3667H3.13333V18.8001H7.83331V20.3667ZM6.26665 21.9334V39.1667H4.69999V21.9334H6.26665ZM29.7666 21.9334V39.1667H28.1999V26.6334H18.8V39.1667H17.2333V21.9334H18.8V18.8001H28.1999V21.9334H29.7666ZM28.1999 26.6334V39.1667H24.2833V26.6334H28.1999ZM24.2833 26.6334V39.1667H18.8V26.6334H24.2833ZM17.2333 20.3667H12.5333V18.8001H17.2333V20.3667ZM15.6666 21.9334V39.1667H14.1V21.9334H15.6666ZM39.1666 21.9334V39.1667H34.4666V21.9334H36.0332V18.8001H37.5999V21.9334H39.1666ZM34.4666 20.3667H29.7666V18.8001H34.4666V20.3667ZM32.8999 21.9334V39.1667H31.3333V21.9334H32.8999ZM40.7332 39.1667V21.9334H42.2999V39.1667H40.7332ZM45.4332 43.8667V45.4333H1.56666V43.8667H45.4332ZM43.8666 20.3667H39.1666V18.8001H43.8666V20.3667ZM45.4332 17.2334H1.56666V15.6667H45.4332V17.2334Z" fill="black"/>
</svg>
