<svg width="47" height="53" viewBox="0 0 47 53" fill="none" xmlns="http://www.w3.org/2000/svg">
<path d="M1.5662 52.1525H45.4338C46.2975 52.1525 47 51.4499 47 50.5863V48.9735C47 48.1099 46.2975 47.4073 45.4338 47.4073H45.4046C45.4046 46.2405 45.4046 36.5328 45.4046 35.508C45.4046 35.0861 45.0626 34.7441 44.6406 34.7441C44.2186 34.7441 43.8767 35.0861 43.8767 35.508V44.0218H36.6495V23.429H43.8767V31.9428C43.8767 32.3647 44.2186 32.7067 44.6406 32.7067C45.0626 32.7067 45.4046 32.3647 45.4046 31.9428V23.429H45.4338C46.2975 23.429 47 22.7264 47 21.8628V20.25C47 19.3864 46.2975 18.6838 45.4338 18.6838H35.4012L32.0515 15.8664C31.7285 15.5947 31.2466 15.6365 30.9752 15.9593C30.7036 16.2822 30.7451 16.7641 31.068 17.0356C32.0679 17.8766 36.2356 21.382 36.8527 21.9011C35.6046 21.9011 11.3171 21.9011 10.1473 21.9011C10.8046 21.3482 22.8369 11.2281 23.5 10.6703L28.3396 14.7407C28.6625 15.0124 29.1443 14.9707 29.4158 14.6478C29.6875 14.3249 29.6458 13.843 29.3229 13.5715L24.3783 9.41261C24.3415 9.38154 24.3031 9.35343 24.264 9.32694V6.7949H29.0944C29.9002 6.7949 30.5559 6.13923 30.5559 5.33341V2.24765C30.5559 1.44173 29.9002 0.786158 29.0944 0.786158H24.264V0.763953C24.264 0.342047 23.922 0 23.5 0C23.078 0 22.736 0.342047 22.736 0.763953V1.55011V6.03095V9.32694C22.697 9.35343 22.6586 9.38154 22.6219 9.41251L11.5988 18.6838H1.5662C0.702531 18.6838 0 19.3865 0 20.25V21.8628C0 22.7265 0.702531 23.429 1.5662 23.429H1.59544V47.4072H1.5662C0.702531 47.4072 0 48.1099 0 48.9734V50.5862C0 51.4499 0.702531 52.1525 1.5662 52.1525ZM45.4338 20.2117C45.4549 20.2117 45.4721 20.229 45.4721 20.25V21.8628C45.4721 21.884 45.4549 21.9011 45.4338 21.9011C44.3222 21.9011 39.3544 21.9011 38.6582 21.9011C38.6187 21.5677 38.4518 21.2523 38.1848 21.0255C38.1829 21.0239 38.1812 21.022 38.1794 21.0205L37.2178 20.2117H45.4338ZM24.264 2.31406H29.028V5.26699H24.264V2.31406ZM36.6495 45.5497H43.8767V47.4073H36.6495V45.5497ZM33.4322 23.429H35.1216V47.4072H33.4322C33.4322 47.145 33.4322 24.0543 33.4322 23.429ZM15.0957 23.429H31.9043V25.1184H15.0957V23.429ZM15.0957 26.6464H31.9043V44.0218H29.5162V38.0442C29.5162 34.7269 26.8174 32.0282 23.5001 32.0282C20.1828 32.0282 17.484 34.7269 17.484 38.0442V44.0218H15.0959V26.6464H15.0957ZM31.9043 45.5497V47.4073H29.5162V45.5497H31.9043ZM27.9882 38.0442V47.4072H24.264V33.6211C26.376 33.9849 27.9882 35.8299 27.9882 38.0442ZM22.736 33.6211V47.4073H19.0118C19.0118 46.3224 19.0118 39.1808 19.0118 38.0443C19.0118 35.8299 20.624 33.9849 22.736 33.6211ZM15.0957 45.5497H17.4838V47.4073H15.0957V45.5497ZM11.8784 23.429H13.5678V47.4072H11.8784C11.8784 46.3607 11.8784 24.3795 11.8784 23.429ZM10.3505 23.429V44.0218H3.12334V23.429H10.3505ZM10.3505 45.5497V47.4073H3.12334V45.5497H10.3505ZM1.5662 21.9011C1.54512 21.9011 1.52791 21.8839 1.52791 21.8628V20.25C1.52791 20.2289 1.54512 20.2117 1.5662 20.2117H9.78216L8.8206 21.0205H8.8207C8.55006 21.2482 8.38087 21.567 8.34175 21.9012C7.64757 21.9011 2.6775 21.9011 1.5662 21.9011ZM1.52791 48.9735C1.52791 48.9523 1.54512 48.9352 1.5662 48.9352H45.4338C45.4549 48.9352 45.4721 48.9524 45.4721 48.9735V50.5863C45.4721 50.6075 45.4549 50.6246 45.4338 50.6246H1.5662C1.54512 50.6246 1.52791 50.6074 1.52791 50.5863V48.9735Z" fill="black"/>
</svg>
