<svg width="47" height="47" viewBox="0 0 47 47" fill="none" xmlns="http://www.w3.org/2000/svg">
<g clip-path="url(#clip0)">
<path d="M12.5992 37.1763V40.3901C12.5992 41.542 13.5363 42.4791 14.6882 42.4791H32.3119C33.4638 42.4791 34.4008 41.542 34.4008 40.3901V37.1763C34.4008 36.0259 33.4638 35.0898 32.3119 35.0898H14.6882C13.5363 35.0899 12.5992 36.0259 12.5992 37.1763ZM32.5649 37.1763V40.3901C32.5649 40.5272 32.449 40.6432 32.3119 40.6432H14.6882C14.5486 40.6432 14.4352 40.5297 14.4352 40.3901V37.1763C14.4352 37.0405 14.551 36.9258 14.6882 36.9258H32.3119C32.449 36.9259 32.5649 37.0406 32.5649 37.1763Z" fill="black"/>
<path d="M44.5677 26.047H44.1066V22.1455C44.1066 22.1436 44.1066 22.142 44.1066 22.1401C44.1066 22.1389 44.1066 22.1376 44.1066 22.1364C44.1063 22.0517 44.1019 22.0058 44.0922 21.9877C44.0655 21.8338 44 21.6845 43.8924 21.5561L41.7574 19.007C42.421 17.9451 42.3632 16.5319 41.5161 15.5206L40.6615 14.5024C40.1549 13.8956 39.4397 13.5224 38.6476 13.4518C37.8535 13.381 37.0818 13.6227 36.4737 14.132C36.4735 14.1323 36.4731 14.1326 36.4727 14.133C35.2178 15.1876 35.0543 17.0659 36.1069 18.3185L36.9608 19.339C37.4694 19.9461 38.1858 20.319 38.9781 20.3887C39.0676 20.3966 39.1566 20.4006 39.2453 20.4006C39.6283 20.4006 40.002 20.3273 40.3507 20.1868L42.2707 22.4792V26.0471H34.8887C34.8153 20.8915 34.0395 18.3304 30.3295 16.5513L28.8563 15.0439C29.9417 13.9486 30.7034 12.6 30.7034 11.1796V8.94414V7.29684C30.7033 3.32396 27.4713 0.0917969 23.4986 0.0917969C19.5259 0.0917969 16.2941 3.32396 16.2941 7.29684V8.94405V11.1795C16.2941 12.6004 17.0563 13.9493 18.1422 15.0448L16.6683 16.5511C12.958 18.3302 12.1823 20.8913 12.1088 26.047H4.7268V22.4791L6.64683 20.1867C6.99556 20.3272 7.36954 20.4005 7.75271 20.4005C7.84257 20.4005 7.9329 20.3964 8.02351 20.3884C8.81571 20.3178 9.53099 19.9447 10.0362 19.3395L10.8917 18.32C11.4005 17.7145 11.6426 16.9446 11.5733 16.152C11.5039 15.3584 11.1311 14.6411 10.5236 14.132C9.91654 13.6235 9.14591 13.3819 8.35397 13.4515C7.56177 13.5213 6.84539 13.8941 6.33729 14.5006L5.47963 15.5226C4.63666 16.5325 4.57947 17.9443 5.24087 19.006L3.10494 21.5562C2.97532 21.711 2.90638 21.896 2.89371 22.0831C2.89234 22.0973 2.89142 22.113 2.89105 22.1307C2.89096 22.1343 2.89078 22.138 2.89078 22.1417C2.89078 22.1431 2.89068 22.1442 2.89068 22.1456V26.0471H2.43216C1.09119 26.047 0 27.1382 0 28.4794V30.0616C0 31.4029 1.09119 32.4941 2.43234 32.4941H3.55649L6.88963 45.5413C6.97509 45.8794 7.23534 46.9082 8.42493 46.9082H38.575C39.7565 46.9082 40.0219 45.8831 40.1097 45.5436L43.4434 32.4942H44.5677C45.9088 32.4942 47 31.403 47 30.0617V28.4795C47 27.1382 45.9088 26.047 44.5677 26.047ZM39.9682 18.3009C39.7369 18.4947 39.443 18.5864 39.139 18.5598C38.8354 18.5331 38.5616 18.391 38.3683 18.1604L37.5135 17.1388C37.111 16.6598 37.1738 15.942 37.6534 15.5385C37.8848 15.3449 38.18 15.2529 38.4844 15.2803C38.7874 15.3073 39.06 15.4489 39.2534 15.6807L40.109 16.7001C40.5115 17.1806 40.4484 17.8986 39.9682 18.3009ZM6.8877 16.701L7.74435 15.6803C7.93786 15.4491 8.21169 15.3072 8.51517 15.2805C8.54969 15.2775 8.58402 15.2759 8.61817 15.2759C8.88484 15.2759 9.13957 15.3677 9.34446 15.5394C9.57579 15.7331 9.71771 16.0075 9.74433 16.312C9.77086 16.6156 9.67925 16.9093 9.48583 17.1394L8.62826 18.1614C8.43632 18.3913 8.16359 18.5329 7.86057 18.5599C7.5558 18.5874 7.26067 18.4951 7.03008 18.3019C6.55099 17.899 6.48774 17.1801 6.8877 16.701ZM23.4986 1.92773C26.4589 1.92773 28.8673 4.3363 28.8673 7.29684V7.98569C27.0302 7.82917 25.5159 7.24727 24.1576 6.72541C22.9388 6.25697 21.751 5.80055 20.5765 5.80055C19.7723 5.80055 18.9742 6.01471 18.1768 6.58569C18.5259 3.96003 20.7794 1.92773 23.4986 1.92773ZM18.1301 11.1795V9.23706C19.7652 7.00438 20.9654 7.46547 23.4991 8.43916C24.9425 8.9938 26.6967 9.66722 28.8673 9.82667V11.1796C28.8673 13.4347 25.3761 15.8201 23.4986 15.8201C21.6212 15.82 18.1301 13.4347 18.1301 11.1795ZM28.4683 17.2737L25.9461 19.6L24.8749 17.4448C25.7118 17.2082 26.606 16.7823 27.4366 16.2181L28.4683 17.2737ZM22.1223 17.4447L21.0512 19.5999L18.5294 17.274L19.5618 16.2188C20.3921 16.7827 21.286 17.2082 22.1223 17.4447ZM17.0534 18.4103L20.7062 21.7794C20.8772 21.9372 21.1 22.0225 21.3285 22.0225C21.3839 22.0225 21.4396 22.0175 21.495 22.0073C21.7792 21.955 22.0221 21.7718 22.1507 21.5131L23.4987 18.8006L24.8468 21.5131C24.9754 21.7718 25.2183 21.9549 25.5025 22.0073C25.787 22.0597 26.0788 21.9751 26.2914 21.7794L29.9441 18.4103C32.3124 19.6689 32.9823 21.3317 33.0528 26.047H13.9448C14.0153 21.3317 14.6852 19.6689 17.0534 18.4103ZM45.1641 30.0616C45.1641 30.3906 44.8966 30.6581 44.5677 30.6581H27.6177C27.1108 30.6581 26.6998 31.0692 26.6998 31.5761C26.6998 32.083 27.1108 32.4941 27.6177 32.4941H41.5486L38.3353 45.0723L8.66471 45.0722L5.45136 32.4942H19.3718C19.8787 32.4942 20.2898 32.0831 20.2898 31.5762C20.2898 31.0693 19.8787 30.6582 19.3718 30.6582H2.43234C2.10912 30.6582 1.83594 30.385 1.83594 30.0617V28.4795C1.83594 28.1562 2.10912 27.883 2.43234 27.883H44.5677C44.8909 27.883 45.1641 28.1562 45.1641 28.4795V30.0616Z" fill="black"/>
<path d="M23.4959 32.4941H23.4985C24.0054 32.4941 24.4152 32.0831 24.4152 31.5762C24.4152 31.0693 24.0028 30.6582 23.4958 30.6582C22.9889 30.6582 22.5779 31.0693 22.5779 31.5762C22.5779 32.0831 22.989 32.4941 23.4959 32.4941Z" fill="black"/>
</g>
<defs>
<clipPath id="clip0">
<rect width="47" height="47" fill="white"/>
</clipPath>
</defs>
</svg>
