<svg width="47" height="47" viewBox="0 0 47 47" fill="none" xmlns="http://www.w3.org/2000/svg">
<g clip-path="url(#clip0)">
<path d="M45.9075 10.6349C45.8207 10.4742 45.6736 10.3545 45.4985 10.3023L43.2081 9.61912L43.6197 8.24253C43.7363 7.85818 43.695 7.45088 43.5036 7.09562C43.4284 6.95591 43.3331 6.8318 43.2225 6.72486L43.9857 4.17382C44.3865 2.82578 43.6172 1.40312 42.272 1.00297C41.62 0.807812 40.9296 0.879047 40.3283 1.20382C39.7279 1.52823 39.2907 2.06534 39.0975 2.71517L38.3342 5.26629C37.8369 5.35965 37.4037 5.69976 37.2109 6.19152L31.3056 0.566938L31.2022 0.468072C31.0787 0.349287 30.9625 0.239131 30.8283 0.155045C30.8224 0.150914 30.8163 0.146875 30.8102 0.142928C30.8077 0.141459 30.8053 0.139898 30.8029 0.138521C30.7499 0.104924 30.6923 0.0782109 30.6308 0.0600352C30.5273 0.023041 30.4118 0 30.2737 0H2.31346C1.5946 0 1.00977 0.584562 1.00977 1.30306V21.0039C1.00977 21.3842 1.31802 21.6923 1.69824 21.6923C2.07846 21.6923 2.38672 21.3842 2.38672 21.0039V1.37695H29.7461L29.7416 5.35268C29.7416 7.09792 31.1614 8.51774 32.9065 8.51774H36.5088L33.6781 17.9837C33.5691 18.348 33.7761 18.7316 34.1404 18.8406C34.5049 18.9499 34.8883 18.7425 34.9973 18.3782L38.0848 8.0538C38.0906 8.03691 38.0956 8.01983 38.1002 8.00239L38.4881 6.70512C38.5071 6.64114 38.5824 6.60249 38.6479 6.62177L42.2177 7.68725C42.2577 7.6991 42.2799 7.72719 42.2914 7.74857C42.3028 7.76987 42.314 7.80356 42.3012 7.8456L41.6927 9.88065C41.6922 9.88221 41.6915 9.88368 41.691 9.88524C41.6906 9.8868 41.6904 9.88836 41.6899 9.88983L34.1826 34.9966L32.9368 34.625L30.3693 33.8591L34.0873 21.4278C34.1963 21.0634 33.9893 20.6798 33.6249 20.5709C33.2608 20.4618 32.8771 20.6689 32.7681 21.0331L28.8527 34.1245C28.8515 34.1285 28.8508 34.1326 28.8496 34.1368C28.8474 34.1449 28.8456 34.1532 28.8436 34.1615C28.8395 34.1788 28.8359 34.1963 28.8331 34.2137C28.8317 34.2224 28.8305 34.2311 28.8294 34.2399C28.8271 34.259 28.8257 34.2781 28.825 34.2972C28.8248 34.3041 28.8242 34.3108 28.8241 34.3177C28.8239 34.3439 28.8251 34.3699 28.828 34.396C28.8281 34.3968 28.828 34.3977 28.8281 34.3985L29.2088 37.7952L29.481 40.1997C29.2201 40.0287 29.0242 39.7309 28.7889 39.347C28.4999 38.8755 28.104 38.23 27.3459 38.3724C26.7091 38.4952 26.4097 39.0273 26.1201 39.5419C25.9698 39.8088 25.8144 40.0849 25.5978 40.3598C25.4377 40.5634 25.3297 40.6212 25.295 40.6232C25.2673 40.6255 25.1072 40.6102 24.6559 40.1612C23.4751 38.9896 22.5567 39.7889 22.1153 40.1728C21.9506 40.3163 21.7638 40.4787 21.641 40.5008C21.5249 40.5204 21.3134 40.4022 21.0729 40.1815C20.7925 39.9245 20.3572 39.9433 20.1001 40.2237C19.8432 40.504 19.862 40.9395 20.1423 41.1965C21.5514 42.4887 22.5427 41.6262 23.0192 41.2116C23.1356 41.1103 23.3304 40.9409 23.3971 40.9284C23.398 40.9285 23.4914 40.9454 23.6854 41.1379C24.1167 41.5672 24.6421 42.0004 25.29 42.0004C25.3193 42.0004 25.3489 41.9995 25.3786 41.9977C25.8546 41.9689 26.2926 41.7041 26.6799 41.2117C26.9622 40.8535 27.1608 40.5007 27.3203 40.2172C27.3775 40.1158 27.4457 39.9943 27.5083 39.8946C27.5451 39.9525 27.5824 40.0132 27.6153 40.0668C28.0019 40.6971 28.7161 41.86 30.3037 41.7274C30.3065 41.7274 30.3094 41.728 30.3122 41.728C30.4144 41.728 30.5053 41.7043 30.5851 41.6688C30.5968 41.6638 30.608 41.6582 30.6194 41.6526C30.6217 41.6514 30.6241 41.6503 30.6264 41.6491C30.6599 41.6321 30.6917 41.6127 30.7216 41.5908C30.8191 41.5224 30.892 41.4435 30.9394 41.3921C30.9473 41.3836 30.9549 41.3749 30.9624 41.3659L35.1748 36.293C35.1811 36.2855 35.1861 36.2771 35.1921 36.2694C35.1996 36.2595 35.2069 36.2497 35.214 36.2394C35.2285 36.218 35.2416 36.196 35.2535 36.1733C35.2571 36.1664 35.2613 36.1601 35.2647 36.1531C35.2796 36.1224 35.2916 36.0908 35.3017 36.0585C35.3026 36.0556 35.304 36.0532 35.3048 36.0504L37.2413 29.5742V45.623H2.38672V24.1863C2.38672 23.806 2.07846 23.4978 1.69824 23.4978C1.31802 23.4978 1.00977 23.806 1.00977 24.1863V45.6944C1.00977 46.4142 1.5946 47 2.31346 47H37.312C38.0324 47 38.6183 46.4142 38.6183 45.6943V24.969L42.8137 10.9383L44.4448 11.4249L41.647 20.7806C41.5381 21.1449 41.7451 21.5285 42.1094 21.6374C42.1752 21.6571 42.2416 21.6664 42.307 21.6664C42.6034 21.6664 42.877 21.4735 42.9664 21.175L45.9615 11.1592C46.0137 10.9842 45.9944 10.7957 45.9075 10.6349ZM40.4171 3.1087C40.5056 2.81082 40.7066 2.56453 40.983 2.41527C41.2602 2.26536 41.5777 2.23241 41.8783 2.32228C42.4971 2.50642 42.8504 3.16093 42.6663 3.7802L41.9512 6.17059L39.702 5.49928L40.4171 3.1087ZM31.1186 5.35341L31.122 2.29309L36.2111 7.1407H32.9064C31.9206 7.1407 31.1186 6.33857 31.1186 5.35341ZM30.78 39.4301L30.3126 35.279L33.4497 36.2149L30.78 39.4301Z" fill="black"/>
<path d="M9.72461 18.5845C9.72461 18.9648 10.0329 19.2729 10.4131 19.2729H29.1063C29.4865 19.2729 29.7948 18.9648 29.7948 18.5845C29.7948 18.2042 29.4865 17.896 29.1063 17.896H10.4131C10.0329 17.896 9.72461 18.2042 9.72461 18.5845Z" fill="black"/>
<path d="M10.4131 24.6248H27.9671C28.3474 24.6248 28.6556 24.3166 28.6556 23.9363C28.6556 23.556 28.3474 23.2478 27.9671 23.2478H10.4131C10.0329 23.2478 9.72461 23.556 9.72461 23.9363C9.72461 24.3166 10.0329 24.6248 10.4131 24.6248Z" fill="black"/>
<path d="M10.4131 29.9763H26.609C26.9892 29.9763 27.2975 29.6682 27.2975 29.2878C27.2975 28.9075 26.9892 28.5994 26.609 28.5994H10.4131C10.0329 28.5994 9.72461 28.9075 9.72461 29.2878C9.72461 29.6682 10.0329 29.9763 10.4131 29.9763Z" fill="black"/>
<path d="M10.4131 35.3281H21.5049C21.8851 35.3281 22.1934 35.02 22.1934 34.6396C22.1934 34.2593 21.8851 33.9512 21.5049 33.9512H10.4131C10.0329 33.9512 9.72461 34.2593 9.72461 34.6396C9.72461 35.02 10.0329 35.3281 10.4131 35.3281Z" fill="black"/>
<path d="M26.9165 13.9813C27.5548 13.9813 28.0742 13.4622 28.0742 12.8241V10.0481C28.0742 9.40998 27.5548 8.89087 26.9165 8.89087H11.7659C11.1276 8.89087 10.6083 9.40998 10.6083 10.0481V12.824C10.6083 13.4621 11.1276 13.9812 11.7659 13.9812H26.9165V13.9813ZM11.9852 10.2677H26.6973V12.6043H11.9852V10.2677Z" fill="black"/>
</g>
<defs>
<clipPath id="clip0">
<rect width="47" height="47" fill="white"/>
</clipPath>
</defs>
</svg>
