<svg width="47" height="47" viewBox="0 0 47 47" fill="white" xmlns="http://www.w3.org/2000/svg">
<g clip-path="url(#clip0)">
<path d="M46.2171 2.05083e-08C46.217 2.05083e-08 46.2168 2.05083e-08 46.2167 2.05083e-08H0.783333C0.350835 -9.78962e-05 9.79167e-05 0.350444 0 0.782942C0 0.78304 0 0.783235 0 0.783333V16.45H1.56667V1.56667H45.4333V18.8H18.0167V20.3667H46.2167C46.6492 20.3668 46.9999 20.0162 47 19.5837C47 19.5836 47 19.5834 47 19.5833V0.783333C47.0001 0.350835 46.6496 9.79372e-05 46.2171 2.05083e-08Z" fill="black"/>
<path d="M41.5166 3.91675H25.85V5.48341H41.5166V3.91675Z" fill="black"/>
<path d="M43.8666 8.6167H28.2V10.1834H43.8666V8.6167Z" fill="black"/>
<path d="M40.7333 13.3167H25.0667V14.8833H40.7333V13.3167Z" fill="black"/>
<path d="M25.0042 6.75367C24.4679 5.4646 22.9882 4.85438 21.6992 5.39067C21.6772 5.39988 21.6552 5.40928 21.6335 5.41907L15.2819 8.71396C15.5323 8.19481 15.6638 7.6263 15.6667 7.04997C15.6667 4.88689 13.9131 3.1333 11.75 3.1333C9.58692 3.1333 7.83333 4.88689 7.83333 7.04997C7.83627 7.90018 8.11856 8.72591 8.63674 9.39997H8.60413C6.38064 9.41485 4.39577 10.7971 3.61077 12.8776L1.51967 20.0851C1.02186 21.3782 1.66654 22.8301 2.95973 23.3279C3.54938 23.5549 4.20297 23.5511 4.78999 23.3172C5.46444 23.0454 5.98927 22.4967 6.23083 21.8109L7.05 19.2039V30.541C6.37594 30.0229 5.55021 29.7406 4.7 29.7376C2.54015 29.7343 0.786565 31.4826 0.783333 33.6426C0.781767 34.7004 1.20868 35.7136 1.96685 36.4513C0.763652 37.066 0.00470002 38.3013 2.05083e-08 39.6524V46.2166C-9.78962e-05 46.6491 0.350444 46.9999 0.782942 47C0.78304 47 0.783235 47 0.783333 47H8.61667C9.04916 47.0001 9.3999 46.6495 9.4 46.217C9.4 46.2169 9.4 46.2167 9.4 46.2166V39.6524C9.39618 38.5421 8.88036 37.4958 8.00214 36.8166H13.9313C13.053 37.4958 12.5372 38.5421 12.5334 39.6524V46.2166C12.5333 46.6491 12.8839 46.9999 13.3164 47C13.3165 47 13.3167 47 13.3168 47H21.1501C21.5826 47.0001 21.9333 46.6495 21.9334 46.217C21.9334 46.2169 21.9334 46.2167 21.9334 46.2166V39.6524C21.9287 38.3013 21.1698 37.066 19.9666 36.4513C21.5132 34.9417 21.5432 32.4641 20.0337 30.9175C19.104 29.9651 17.7541 29.5504 16.4501 29.8168V13.7924L23.6412 10.0586C24.9302 9.52236 25.5404 8.04265 25.0042 6.75367ZM11.75 4.69997C13.0479 4.69997 14.1 5.75208 14.1 7.04997C14.1 8.34785 13.0479 9.39997 11.75 9.39997C10.4527 9.3986 9.40137 8.34727 9.4 7.04997C9.4 5.75208 10.4521 4.69997 11.75 4.69997ZM4.7 31.3042C5.99789 31.3042 7.05 32.3563 7.05 33.6542C7.05 34.9521 5.99789 36.0042 4.7 36.0042C3.40211 36.0042 2.35 34.9521 2.35 33.6542C2.35137 32.3569 3.4027 31.3057 4.7 31.3042ZM7.83333 45.4333H1.56667V39.6524C1.56823 38.5194 2.4864 37.6013 3.61949 37.6H5.78051C6.9135 37.6013 7.83177 38.5194 7.83333 39.6524V45.4333ZM20.3667 39.6524V45.4333H14.1V39.6524C14.1016 38.5194 15.0197 37.6013 16.1528 37.6H18.3138C19.4469 37.6013 20.3651 38.5194 20.3667 39.6524ZM17.2333 31.3042C18.5306 31.3056 19.582 32.3569 19.5833 33.6542C19.5833 34.9521 18.5312 36.0042 17.2333 36.0042C15.9354 36.0042 14.8833 34.9521 14.8833 33.6542C14.8833 32.3563 15.9354 31.3042 17.2333 31.3042ZM23.5708 8.06047C23.4659 8.32954 23.2506 8.54075 22.9795 8.64033L15.306 12.6212C15.0464 12.756 14.8833 13.0242 14.8833 13.3166V30.541C13.4161 31.6259 12.9078 33.5894 13.6645 35.25H12.5333V21.9333H10.9667V35.25H8.26887C8.49172 34.7574 8.60913 34.2238 8.61373 33.6833H8.61667V14.1C8.61657 13.6673 8.26573 13.3166 7.83314 13.3167C7.49111 13.3168 7.18865 13.5388 7.08603 13.8652L4.747 21.3083C4.56977 21.7971 4.02976 22.0497 3.54096 21.8724C3.50669 21.86 3.4731 21.8456 3.4404 21.8292C2.98851 21.5957 2.7967 21.0505 3.00291 20.5854L5.09392 13.3778C5.65782 11.9296 7.0499 10.9734 8.60404 10.9666H14.1505C14.2761 10.9668 14.3998 10.9366 14.5112 10.8787L22.2968 6.83739C22.7639 6.64254 23.3022 6.84189 23.5296 7.29407C23.6501 7.5324 23.6651 7.81049 23.5708 8.06047Z" fill="black"/>
<path d="M32.4998 36.4513C34.0491 34.9418 34.0814 32.4621 32.572 30.9127C31.0625 29.3634 28.5827 29.3311 27.0334 30.8406C25.4841 32.35 25.4518 34.8298 26.9612 36.3791C26.985 36.4035 27.0091 36.4276 27.0335 36.4513C25.8304 37.066 25.0714 38.3013 25.0667 39.6524V46.2166C25.0666 46.6491 25.4171 46.9998 25.8496 46.9999C25.8497 46.9999 25.8499 46.9999 25.85 46.9999H33.6833C34.1158 47 34.4666 46.6495 34.4667 46.217C34.4667 46.2169 34.4667 46.2167 34.4667 46.2166V39.6524C34.462 38.3013 33.703 37.066 32.4998 36.4513ZM29.7667 31.3042C31.0645 31.3042 32.1167 32.3563 32.1167 33.6542C32.1167 34.9521 31.0645 36.0042 29.7667 36.0042C28.4688 36.0042 27.4167 34.9521 27.4167 33.6542C27.418 32.3569 28.4694 31.3057 29.7667 31.3042ZM32.9 45.4333H26.6333V39.6524C26.6349 38.5194 27.553 37.6013 28.6861 37.5999H30.8472C31.9802 37.6013 32.8984 38.5194 32.9 39.6524V45.4333Z" fill="black"/>
<path d="M45.0331 36.4513C46.5825 34.9418 46.6148 32.4621 45.1053 30.9127C43.5958 29.3634 41.1161 29.3311 39.5667 30.8406C38.0174 32.35 37.9851 34.8298 39.4946 36.3791C39.5184 36.4035 39.5424 36.4276 39.5668 36.4513C38.3637 37.066 37.6047 38.3013 37.6 39.6524V46.2166C37.5999 46.6491 37.9504 46.9998 38.3829 46.9999C38.383 46.9999 38.3832 46.9999 38.3833 46.9999H46.2166C46.6491 47 46.9999 46.6495 47 46.217C47 46.2169 47 46.2167 47 46.2166V39.6524C46.9953 38.3013 46.2363 37.066 45.0331 36.4513ZM42.3 31.3042C43.5979 31.3042 44.65 32.3563 44.65 33.6542C44.65 34.9521 43.5979 36.0042 42.3 36.0042C41.0021 36.0042 39.95 34.9521 39.95 33.6542C39.9513 32.3569 41.0027 31.3057 42.3 31.3042ZM45.4333 45.4333H39.1666V39.6524C39.1682 38.5194 40.0864 37.6013 41.2195 37.5999H43.3805C44.5135 37.6013 45.4317 38.5194 45.4333 39.6524V45.4333Z" fill="black"/>
</g>
<defs>
<clipPath id="clip0">
<rect width="47" height="47" fill="white"/>
</clipPath>
</defs>
</svg>
