<svg width="30" height="30" viewBox="0 0 30 30" fill="none" xmlns="http://www.w3.org/2000/svg">
<path d="M16.6574 15.0001L29.6568 2.00058C30.1145 1.5429 30.1145 0.800874 29.6568 0.343257C29.1991 -0.11436 28.4571 -0.114419 27.9995 0.343257L15 13.3427L2.00058 0.343257C1.5429 -0.114419 0.800874 -0.114419 0.343257 0.343257C-0.11436 0.800932 -0.114419 1.54296 0.343257 2.00058L13.3427 15L0.343257 27.9995C-0.114419 28.4572 -0.114419 29.1992 0.343257 29.6568C0.572065 29.8856 0.872006 30 1.17195 30C1.47189 30 1.77177 29.8856 2.00064 29.6568L15 16.6574L27.9994 29.6568C28.2282 29.8856 28.5282 30 28.8281 30C29.1281 30 29.4279 29.8856 29.6568 29.6568C30.1145 29.1991 30.1145 28.4571 29.6568 27.9995L16.6574 15.0001Z" fill="#CC1701"/>
</svg>
