<svg width="120" height="120" viewBox="0 0 120 120" fill="none" xmlns="http://www.w3.org/2000/svg">
<path d="M24.3019 30.977C24.139 30.8902 23.9605 30.8363 23.7767 30.8184C23.5929 30.8005 23.4073 30.819 23.2307 30.8728C23.054 30.9266 22.8897 31.0147 22.7471 31.1321C22.6045 31.2494 22.4864 31.3937 22.3995 31.5566L21.5178 33.2113C21.3424 33.5405 21.3049 33.9258 21.4136 34.2826C21.5223 34.6393 21.7683 34.9383 22.0974 35.1137C22.4265 35.2892 22.8119 35.3266 23.1686 35.2179C23.5254 35.1092 23.8244 34.8633 23.9998 34.5341L24.8815 32.8794C24.9684 32.7165 25.0223 32.538 25.0402 32.3542C25.0581 32.1704 25.0396 31.9848 24.9857 31.8082C24.9319 31.6315 24.8438 31.4672 24.7265 31.3246C24.6092 31.182 24.4649 31.0639 24.3019 30.977Z" fill="#F5F5F5"/>
<path d="M21.4366 36.3547C21.2736 36.2678 21.0951 36.2139 20.9113 36.1961C20.7275 36.1782 20.542 36.1967 20.3653 36.2505C20.1887 36.3043 20.0244 36.3924 19.8817 36.5097C19.7391 36.6271 19.621 36.7713 19.5342 36.9343L12.149 50.7922C11.9736 51.1213 11.9361 51.5067 12.0448 51.8635C12.1535 52.2202 12.3995 52.5192 12.7286 52.6946C13.0578 52.87 13.4431 52.9075 13.7999 52.7988C14.1566 52.6901 14.4556 52.4442 14.631 52.115L22.0162 38.2569C22.1915 37.9278 22.229 37.5425 22.1203 37.1858C22.0116 36.8291 21.7657 36.5301 21.4366 36.3547Z" fill="#F5F5F5"/>
<path d="M103.007 22.5847C102.85 22.2495 102.567 21.9898 102.219 21.8619C101.872 21.7341 101.488 21.7484 101.151 21.9017L77.3033 32.7533C76.8867 32.9235 76.5091 33.1768 76.1935 33.4977C75.8779 33.8186 75.631 34.2003 75.4678 34.6197C75.3046 35.0391 75.2284 35.4874 75.244 35.9372C75.2596 36.387 75.3667 36.8289 75.5586 37.2359L76.3034 38.8151L75.8961 38.9886C73.4771 39.4923 71.7945 39.4215 69.2982 38.7198L63.0748 36.9706C61.2645 36.4602 59.3442 36.4913 57.5513 37.0599L51.545 38.9598C50.3315 39.344 49.2061 39.9647 48.2337 40.7862C46.5238 40.2681 44.7265 40.1016 42.9505 40.2969L43.5535 39.1484C43.944 38.4018 44.0361 37.5348 43.8112 36.7228C43.5863 35.9109 43.0612 35.2148 42.3423 34.7755C42.3324 34.7696 42.3223 34.7635 42.3123 34.7579L20.6091 22.2767C20.4449 22.1823 20.2632 22.122 20.0751 22.0995C19.887 22.077 19.6963 22.0928 19.5144 22.1459C19.3325 22.1989 19.1632 22.2882 19.0167 22.4083C18.8702 22.5284 18.7494 22.6769 18.6617 22.8448L0.73624 57.1641C0.566799 57.4885 0.530473 57.8661 0.634977 58.2168C0.739481 58.5675 0.976583 58.8637 1.29593 59.0424L22.9013 71.1324C23.3958 71.4129 23.9545 71.5607 24.523 71.5613C24.8426 71.5609 25.1606 71.5146 25.467 71.4237C25.8931 71.2996 26.2896 71.0905 26.6327 70.809C26.9758 70.5275 27.2584 70.1795 27.4634 69.7859L27.6629 69.4062L29.7748 71.5322L26.6342 75.8916C25.8479 76.9832 25.5274 78.3424 25.7432 79.6702C25.9589 80.9981 26.6933 82.1859 27.7848 82.9723L28.2835 83.3316C29.1448 83.9533 30.1803 84.2873 31.2425 84.286C31.5566 84.2855 31.8699 84.2561 32.1786 84.1981C32.184 84.237 32.1854 84.2759 32.1917 84.3153C32.2967 84.9734 32.5313 85.6041 32.8817 86.171C33.2322 86.7378 33.6916 87.2295 34.2334 87.6176L34.7321 87.9769C35.5931 88.5988 36.6285 88.933 37.6906 88.932C38.0047 88.9315 38.318 88.9021 38.6267 88.8441C38.6321 88.883 38.6335 88.9219 38.6398 88.9613C38.7449 89.6194 38.9794 90.2501 39.3298 90.817C39.6803 91.3838 40.1397 91.8755 40.6815 92.2636L41.1802 92.6229C42.0412 93.2447 43.0765 93.5789 44.1385 93.578C44.4531 93.5774 44.7669 93.5479 45.076 93.4897C45.1683 94.1691 45.3979 94.8226 45.7509 95.4105C46.1038 95.9984 46.5726 96.5083 47.1289 96.9092L47.6277 97.2685C48.7196 98.0537 50.0785 98.3735 51.406 98.1578C52.7335 97.9421 53.9212 97.2085 54.7084 96.1179L56.1521 94.1143L58.4651 95.9625C59.2694 96.6515 60.2481 97.1053 61.2936 97.2742C62.339 97.4431 63.4108 97.3205 64.3911 96.9198C65.3714 96.5192 66.2223 95.856 66.8502 95.0032C67.4781 94.1504 67.8588 93.141 67.9503 92.086C68.7774 92.3718 69.6588 92.4653 70.5274 92.3592C71.3961 92.2531 72.2291 91.9503 72.9631 91.4739C73.6971 90.9974 74.3128 90.3598 74.7633 89.6096C75.2137 88.8593 75.4872 88.0163 75.5628 87.1444C76.3743 87.4247 77.2382 87.52 78.0912 87.4232C78.9442 87.3264 79.7648 87.0401 80.4929 86.5851C81.2209 86.1301 81.838 85.5181 82.2989 84.7938C82.7598 84.0695 83.0528 83.2513 83.1566 82.399C83.882 82.7202 84.6666 82.8864 85.46 82.887C85.6053 82.887 85.7518 82.8816 85.8983 82.8706C86.6562 82.8152 87.3956 82.6103 88.074 82.2679C88.7524 81.9255 89.3563 81.4522 89.851 80.8754L89.9232 80.7919C90.4313 80.2069 90.8125 79.5227 91.0427 78.7828C91.2729 78.0429 91.3472 77.2633 91.2608 76.4933C91.086 75.0404 90.3679 73.7076 89.2508 72.7625L87.8483 71.5517C88.8679 70.8442 89.7899 70.0055 90.5905 69.0573C90.8839 69.5413 91.297 69.9416 91.7901 70.2195C92.2832 70.4975 92.8395 70.6437 93.4055 70.6442C93.8622 70.6437 94.3139 70.5493 94.7326 70.3669L94.7698 70.3503L118.615 59.1887C118.867 59.0706 119.078 58.8808 119.222 58.6431C119.366 58.4054 119.437 58.1304 119.425 57.8527C119.414 57.6564 119.364 57.4643 119.278 57.2876L103.007 22.5847ZM25.1429 68.1542C25.0897 68.2556 25.0167 68.3453 24.9282 68.418C24.8397 68.4907 24.7376 68.545 24.6278 68.5776C24.518 68.6102 24.4028 68.6204 24.289 68.6078C24.1752 68.5951 24.0651 68.5598 23.9651 68.5039L3.86163 57.2539L20.4758 25.4457L40.5851 37.0102C40.7738 37.1189 40.913 37.2963 40.9737 37.5053C41.0344 37.7143 41.0118 37.9387 40.9107 38.1315L25.1429 68.1542ZM33.0823 80.5362C32.7315 81.022 32.2023 81.3487 31.6108 81.4448C31.0194 81.5409 30.414 81.3985 29.9274 81.0488L29.4287 80.6895C29.1878 80.5161 28.9835 80.2968 28.8273 80.0444C28.6712 79.792 28.5664 79.5112 28.5188 79.2182C28.4712 78.9253 28.4818 78.6258 28.5499 78.3369C28.6181 78.048 28.7425 77.7754 28.9161 77.5346L35.2695 68.7158C35.6202 68.2298 36.1494 67.9029 36.7409 67.8068C37.3325 67.7107 37.9379 67.8533 38.4244 68.2032L38.9232 68.5625C39.1641 68.7359 39.3684 68.9551 39.5245 69.2075C39.6806 69.46 39.7855 69.7407 39.8331 70.0336C39.8807 70.3266 39.8701 70.6261 39.8019 70.9149C39.7337 71.2038 39.6093 71.4764 39.4358 71.7172L33.0823 80.5362ZM39.5323 85.1818C39.1811 85.6676 38.6516 85.9943 38.0599 86.0904C37.4681 86.1865 36.8624 86.0441 36.3755 85.6944L35.8768 85.3351C35.3905 84.9847 35.0633 84.4555 34.9672 83.8639C34.8711 83.2723 35.0139 82.6667 35.3642 82.1804L40.0693 75.6495C40.4202 75.1638 40.9493 74.837 41.5407 74.7409C42.1322 74.6448 42.7376 74.7871 43.2242 75.1367L43.723 75.496C44.209 75.8466 44.5361 76.3756 44.6325 76.9671C44.729 77.5585 44.5869 78.1641 44.2374 78.6509L39.5323 85.1818ZM45.9776 89.8273C45.6268 90.3131 45.0977 90.6399 44.5062 90.736C43.9148 90.8321 43.3093 90.6898 42.8227 90.3401L42.324 89.9806C41.8377 89.6302 41.5105 89.101 41.4144 88.5094C41.3183 87.9178 41.4611 87.3122 41.8114 86.8259L45.1679 82.1668C45.5188 81.6811 46.048 81.3545 46.6394 81.2584C47.2309 81.1624 47.8362 81.3048 48.3228 81.6544L48.8216 82.0137C49.3073 82.3645 49.6341 82.8937 49.7302 83.4852C49.8263 84.0767 49.6839 84.6821 49.3341 85.1686L45.9776 89.8273ZM54.4334 91.6861L52.4258 94.4729C52.075 94.9586 51.5458 95.2854 50.9543 95.3816C50.3629 95.4777 49.7575 95.3353 49.2709 94.9857L48.7721 94.6264C48.2864 94.2755 47.9596 93.7463 47.8635 93.1549C47.7674 92.5635 47.9099 91.958 48.2595 91.4715L50.2674 88.6847C50.6182 88.1989 51.1473 87.8721 51.7387 87.776C52.3301 87.6798 52.9355 87.8222 53.4221 88.1719L53.9209 88.5312C54.4067 88.8819 54.7337 89.4111 54.8299 90.0025C54.9262 90.594 54.7839 91.1994 54.4344 91.6861H54.4334ZM85.5844 69.5785L85.7429 69.7355L81.5405 66.1079C81.0249 65.6627 80.5249 65.2006 80.0405 64.7215L71.7894 56.5625C71.6644 56.4394 71.5058 56.356 71.3336 56.3227C71.1614 56.2894 70.9832 56.3077 70.8213 56.3753C70.6595 56.4429 70.5212 56.5568 70.4238 56.7026C70.3264 56.8485 70.2743 57.0199 70.2739 57.1953C70.3367 58.3489 70.7947 59.4457 71.5709 60.3015L78.1013 66.7578C78.5837 67.2348 79.0816 67.695 79.595 68.1383L87.5033 74.9691C87.7948 75.2194 88.0318 75.5269 88.1997 75.8725C88.3676 76.2181 88.4627 76.5945 88.4792 76.9784C88.502 77.7288 88.2366 78.4594 87.7374 79.0201L87.7234 79.0365C87.469 79.3338 87.1583 79.5778 86.8092 79.7544C86.46 79.9311 86.0794 80.0369 85.6892 80.0658C85.3025 80.0963 84.9137 80.0493 84.5454 79.9276C84.1771 79.8059 83.8368 79.6119 83.5444 79.3571L75.0802 72.0446C74.8017 71.7966 74.4381 71.6659 74.0655 71.6797C73.6928 71.6935 73.34 71.8508 73.0805 72.1187C72.9532 72.2574 72.855 72.4202 72.7918 72.5976C72.7286 72.775 72.7017 72.9633 72.7126 73.1513C72.7235 73.3393 72.7721 73.5231 72.8554 73.692C72.9388 73.8609 73.0552 74.0113 73.1977 74.1343L73.2139 74.1481L79.378 79.4738C79.9691 79.9869 80.3322 80.7139 80.3874 81.4947C80.4425 82.2756 80.1852 83.0463 79.6721 83.6375C79.159 84.2286 78.432 84.5917 77.6512 84.6469C76.8703 84.702 76.0996 84.4447 75.5084 83.9316L69.338 78.6012C69.1989 78.4768 69.0363 78.3814 68.8598 78.3205C68.6834 78.2596 68.4966 78.2344 68.3103 78.2465C68.124 78.2585 67.942 78.3075 67.7749 78.3906C67.6077 78.4737 67.4588 78.5893 67.3368 78.7306C67.2148 78.8718 67.1221 79.036 67.0642 79.2134C67.0062 79.3909 66.9842 79.5781 66.9994 79.7641C67.0146 79.9502 67.0666 80.1313 67.1526 80.2971C67.2385 80.4628 67.3565 80.6097 67.4998 80.7294L71.7554 84.4053C72.0513 84.6579 72.2944 84.9665 72.4707 85.3134C72.6469 85.6603 72.7528 86.0387 72.7823 86.4267C72.8118 86.8146 72.7643 87.2046 72.6425 87.5742C72.5208 87.9438 72.3271 88.2856 72.0727 88.58C71.8184 88.8745 71.5083 89.1157 71.1603 89.2899C70.8124 89.4641 70.4334 89.5677 70.0453 89.5949C69.6571 89.6221 69.2674 89.5722 68.8986 89.4483C68.5298 89.3243 68.1891 89.1286 67.8962 88.8725L63.6854 85.2354C63.4069 84.9875 63.0434 84.8568 62.6708 84.8706C62.2982 84.8844 61.9453 85.0416 61.6859 85.3095C61.5586 85.4482 61.4604 85.6111 61.3972 85.7885C61.334 85.9659 61.3071 86.1541 61.318 86.3421C61.3289 86.5301 61.3775 86.714 61.4608 86.8828C61.5442 87.0517 61.6606 87.2021 61.8031 87.3251L64.1445 89.3478C64.7368 89.86 65.1013 90.5866 65.1579 91.3677C65.2145 92.1487 64.9585 92.9202 64.4463 93.5125C63.934 94.1048 63.2075 94.4693 62.4264 94.5259C61.6454 94.5825 60.8739 94.3265 60.2816 93.8143L57.5159 91.6027C57.7635 90.6178 57.71 89.5813 57.3624 88.6271C57.0148 87.6729 56.389 86.8449 55.5659 86.2501L55.0672 85.8908C54.3003 85.339 53.3937 85.0141 52.4509 84.9533C52.6663 83.9844 52.5931 82.9736 52.2404 82.0458C51.8878 81.1181 51.271 80.3139 50.4664 79.7328L49.9677 79.3735C49.2008 78.8217 48.2941 78.4968 47.3513 78.436C47.5667 77.4672 47.4936 76.4565 47.141 75.5287C46.7883 74.601 46.1717 73.7969 45.3671 73.2158L44.8681 72.8565C44.1522 72.3406 43.3132 72.0221 42.4353 71.9328C42.7596 70.9143 42.7536 69.8193 42.4181 68.8043C42.0826 67.7894 41.4348 66.9066 40.5673 66.282L40.0686 65.9227C38.9765 65.1378 37.6177 64.8182 36.2902 65.0338C34.9627 65.2495 33.775 65.983 32.9876 67.0733L31.4408 69.2197L29.0335 66.7965L41.304 43.433C42.8994 43.0091 44.5655 42.9217 46.1966 43.1764C45.9537 43.5766 45.7399 43.9938 45.5569 44.4247L40.6044 57.9758C40.496 58.3066 40.5142 58.6658 40.6553 58.9839C40.7965 59.3021 41.0507 59.5566 41.3687 59.6982L41.7629 59.874C43.1982 60.5307 44.7769 60.8118 46.3507 60.6906C47.9245 60.5695 49.4417 60.0503 50.7596 59.1816C51.8983 58.4296 52.8544 57.4326 53.5579 56.2633C54.2615 55.0941 54.6947 53.7824 54.8258 52.4241V52.4211C54.848 52.1765 54.8928 51.9344 54.9596 51.698C55.1705 50.9642 55.6848 49.6121 56.7034 49.1668C56.9694 49.0525 57.2669 49.0341 57.545 49.1148L59.8348 49.7607C60.8172 50.0378 61.7132 50.5595 62.439 51.2771L65.9342 54.7327C66.7646 55.553 67.5779 55.636 68.1406 55.1951C68.2988 55.0724 68.429 54.9173 68.5224 54.7402C68.6158 54.563 68.6703 54.368 68.6822 54.1682C68.6942 53.9683 68.6633 53.7681 68.5917 53.5812C68.5201 53.3942 68.4094 53.2246 68.2669 53.0839L64.4178 49.2786C63.3524 48.2265 62.0382 47.461 60.5975 47.0534L57.7824 46.2594C57.6567 46.222 57.5261 46.2041 57.395 46.2064C55.5605 46.2139 53.9942 47.2484 52.9845 49.119C52.5938 49.8551 52.3032 50.6402 52.1206 51.4533C52.0877 51.603 52.0642 51.7545 52.0503 51.9071L52.0269 52.1551C51.9352 53.0976 51.6338 54.0077 51.145 54.8188C50.6561 55.6298 49.9921 56.3213 49.2015 56.8426C48.3943 57.3651 47.482 57.7036 46.5293 57.8341C45.5767 57.9647 44.607 57.884 43.689 57.598L48.1541 45.5073C48.5386 44.5948 49.1169 43.7769 49.849 43.1101C50.581 42.4434 51.4492 41.9437 52.3934 41.6457L58.3998 39.7456C59.6703 39.3428 61.0309 39.3208 62.3138 39.6823L68.5372 41.4317C71.5416 42.2755 73.6559 42.35 76.6182 41.7148L77.5039 41.3649L89.2072 66.1798C88.3159 67.6083 87.0676 68.7798 85.5854 69.5785H85.5844ZM94.4567 67.3906C94.1157 67.5503 93.7253 67.5682 93.3711 67.4403C93.0168 67.3126 92.7276 67.0496 92.5669 66.709L78.5724 37.0353C78.4647 36.807 78.4128 36.5563 78.4209 36.3039C78.4291 36.0516 78.4971 35.8048 78.6193 35.5838C78.7955 35.2765 79.0662 35.0343 79.3911 34.8931L101.047 25.0377L116.144 57.2382L94.4567 67.3906Z" fill="#F5F5F5"/>
</svg>
