<svg width="25" height="26" viewBox="0 0 25 26" fill="none" xmlns="http://www.w3.org/2000/svg">
<path d="M24.9365 7.35149C24.8779 6.02289 24.663 5.10949 24.3553 4.31801C24.0378 3.47788 23.5493 2.72571 22.9093 2.10043C22.284 1.46541 21.5269 0.971982 20.6965 0.659436C19.9004 0.351661 18.9918 0.13681 17.6632 0.0782317C16.3247 0.0146923 15.8997 0 12.5049 0C9.10999 0 8.68506 0.0146923 7.35149 0.0732707C6.02289 0.131849 5.10949 0.346891 4.3182 0.654475C3.47788 0.971982 2.72571 1.46045 2.10043 2.10043C1.46541 2.72571 0.972172 3.48284 0.659436 4.31324C0.351661 5.10949 0.13681 6.01793 0.0782317 7.34653C0.0146923 8.68506 0 9.10999 0 12.5049C0 15.8997 0.0146923 16.3247 0.0732707 17.6582C0.131849 18.9868 0.346891 19.9002 0.654666 20.6917C0.972172 21.5319 1.46541 22.284 2.10043 22.9093C2.72571 23.5443 3.48284 24.0378 4.31324 24.3503C5.10949 24.6581 6.01793 24.8729 7.34672 24.9315C8.6801 24.9903 9.10522 25.0048 12.5001 25.0048C15.895 25.0048 16.3199 24.9903 17.6535 24.9315C18.9821 24.8729 19.8955 24.6581 20.6868 24.3503C22.3672 23.7006 23.6958 22.372 24.3455 20.6917C24.6531 19.8955 24.8682 18.9868 24.9267 17.6582C24.9853 16.3247 25 15.8997 25 12.5049C25 9.10999 24.995 8.68506 24.9365 7.35149ZM22.6847 17.5605C22.6309 18.7817 22.4258 19.4412 22.2548 19.8808C21.8347 20.9701 20.9701 21.8347 19.8808 22.2548C19.4412 22.4258 18.777 22.6309 17.5605 22.6845C16.2417 22.7433 15.8461 22.7578 12.5098 22.7578C9.17353 22.7578 8.77302 22.7433 7.45892 22.6845C6.23774 22.6309 5.5783 22.4258 5.13868 22.2548C4.59659 22.0545 4.10316 21.737 3.70265 21.3218C3.28745 20.9163 2.96994 20.4278 2.76959 19.8857C2.59863 19.4461 2.39351 18.7817 2.33989 17.5655C2.28112 16.2466 2.26662 15.8509 2.26662 12.5146C2.26662 9.1783 2.28112 8.77779 2.33989 7.46388C2.39351 6.2427 2.59863 5.58327 2.76959 5.14364C2.96994 4.60136 3.28745 4.10812 3.70761 3.70742C4.11289 3.29222 4.60136 2.97471 5.14364 2.77456C5.58327 2.60359 6.24766 2.39847 7.46388 2.34466C8.78275 2.28608 9.17849 2.27139 12.5146 2.27139C15.8559 2.27139 16.2514 2.28608 17.5655 2.34466C18.7867 2.39847 19.4461 2.60359 19.8857 2.77456C20.4278 2.97471 20.9213 3.29222 21.3218 3.70742C21.737 4.11289 22.0545 4.60136 22.2548 5.14364C22.4258 5.58327 22.6309 6.24747 22.6847 7.46388C22.7433 8.78275 22.758 9.1783 22.758 12.5146C22.758 15.8509 22.7433 16.2417 22.6847 17.5605Z" fill="#CC1701"/>
<path d="M12.5049 6.08154C8.95875 6.08154 6.08154 8.95856 6.08154 12.5049C6.08154 16.0513 8.95875 18.9283 12.5049 18.9283C16.0513 18.9283 18.9283 16.0513 18.9283 12.5049C18.9283 8.95856 16.0513 6.08154 12.5049 6.08154ZM12.5049 16.6716C10.2044 16.6716 8.33824 14.8057 8.33824 12.5049C8.33824 10.2042 10.2044 8.33824 12.5049 8.33824C14.8057 8.33824 16.6716 10.2042 16.6716 12.5049C16.6716 14.8057 14.8057 16.6716 12.5049 16.6716Z" fill="#CC1701"/>
<path d="M20.6817 5.82745C20.6817 6.65556 20.0102 7.32702 19.1819 7.32702C18.3538 7.32702 17.6824 6.65556 17.6824 5.82745C17.6824 4.99915 18.3538 4.32788 19.1819 4.32788C20.0102 4.32788 20.6817 4.99915 20.6817 5.82745Z" fill="#CC1701"/>
</svg>
