<svg width="25" height="25" viewBox="0 0 25 25" fill="none" xmlns="http://www.w3.org/2000/svg">
<path d="M24.9938 24.9998V24.9988H25.0001V15.83C25.0001 11.3446 24.0344 7.8894 18.7907 7.8894C16.2699 7.8894 14.5782 9.27274 13.8876 10.5842H13.8146V8.30815H8.84277V24.9988H14.0199V16.7342C14.0199 14.5582 14.4324 12.454 17.1271 12.454C19.7824 12.454 19.8219 14.9373 19.8219 16.8738V24.9998H24.9938Z" fill="#CC1701"/>
<path d="M0.412598 8.30933H5.59593V25H0.412598V8.30933Z" fill="#CC1701"/>
<path d="M3.00208 0C1.34479 0 0 1.34479 0 3.00208C0 4.65938 1.34479 6.03229 3.00208 6.03229C4.65938 6.03229 6.00417 4.65938 6.00417 3.00208C6.00313 1.34479 4.65833 0 3.00208 0V0Z" fill="#CC1701"/>
</svg>
