<svg width="47" height="47" viewBox="0 0 47 47" fill="none" xmlns="http://www.w3.org/2000/svg">
<path d="M23.9872 13.5192C25.8999 13.5192 27.4559 11.9632 27.4559 10.0507C27.4559 8.13818 25.8998 6.58203 23.9872 6.58203C22.0746 6.58203 20.5187 8.13809 20.5187 10.0507C20.5187 11.9632 22.0747 13.5192 23.9872 13.5192ZM23.9872 7.9589C25.1407 7.9589 26.0789 8.89725 26.0789 10.0506C26.0789 11.2039 25.1405 12.1423 23.9872 12.1423C22.834 12.1423 21.8955 11.2039 21.8955 10.0506C21.8956 8.89725 22.8338 7.9589 23.9872 7.9589Z" fill="black"/>
<path d="M10.9132 39.8418C8.25185 37.8813 6.04835 35.296 4.54095 32.3655C2.98389 29.3384 2.17359 25.9358 2.19773 22.5257C2.23767 16.868 4.47109 11.5553 8.48676 7.5662C12.5043 3.57513 17.8358 1.37714 23.4989 1.37696C26.8399 1.37687 30.0483 2.14567 33.0354 3.66179C33.3746 3.83391 33.7888 3.6986 33.9609 3.3595C34.133 3.0205 33.9976 2.60603 33.6586 2.434C30.4767 0.818831 27.0584 -9.17895e-05 23.4989 7.71665e-09C17.4697 0.000183602 11.7936 2.34028 7.51628 6.5893C3.24119 10.8362 0.863369 16.4924 0.820866 22.516C0.795255 26.1477 1.65824 29.7714 3.31647 32.9954C4.92062 36.1139 7.26512 38.8647 10.0965 40.9506C10.2194 41.0411 10.3625 41.0848 10.5043 41.0848C10.7156 41.0848 10.9242 40.9877 11.0591 40.8046C11.2847 40.4984 11.2194 40.0674 10.9132 39.8418Z" fill="black"/>
<path d="M40.9649 37.147C44.3081 33.1155 46.1598 28.0073 46.1788 22.7632C46.2052 15.4702 42.6359 8.54546 36.6307 4.2398C36.3219 4.01839 35.8916 4.08907 35.67 4.39815C35.4485 4.70714 35.5193 5.13731 35.8284 5.35881C41.4721 9.40533 44.8266 15.9098 44.8019 22.7581C44.784 27.6837 43.0449 32.4816 39.905 36.2679C39.055 37.2927 38.4808 38.4999 38.2445 39.7592C38.0571 40.7577 37.8647 42.2623 38.3554 43.7951C38.5162 44.2977 38.3922 44.8241 38.0238 45.203C37.6647 45.5724 37.157 45.708 36.6654 45.5657C35.2503 45.1562 33.8068 44.5364 32.4907 43.7731C31.4014 43.1415 30.1229 42.9705 28.8903 43.2924C27.0665 43.7684 25.1766 43.9994 23.2765 43.9804C19.8833 43.9456 16.6431 43.129 13.6458 41.5533C13.3088 41.3762 12.8929 41.5058 12.716 41.8422C12.539 42.1788 12.6684 42.5951 13.0049 42.7721C16.1975 44.4505 19.6485 45.3202 23.2623 45.3573C25.287 45.3771 27.2962 45.1316 29.2381 44.6247C30.1169 44.3953 31.0268 44.5159 31.7999 44.9643C33.2114 45.7829 34.7614 46.4483 36.2825 46.8884C36.5417 46.9634 36.8028 47.0001 37.0604 47.0001C37.7851 47 38.4799 46.7092 39.011 46.1629C39.7293 45.4241 39.9807 44.3559 39.6667 43.3754C39.3616 42.422 39.3403 41.3851 39.5978 40.0133C39.7911 38.9835 40.2638 37.9924 40.9649 37.147Z" fill="black"/>
<path d="M16.8716 33.2045V33.8955C16.8716 35.2111 17.9418 36.2813 19.2573 36.2813H28.7163C30.032 36.2813 31.1022 35.211 31.1022 33.8955V33.2045C31.1022 31.8888 30.0319 30.8186 28.7163 30.8186H27.4554V17.5952C27.4554 16.8045 27.0614 16.0724 26.4016 15.6367C25.7417 15.2012 24.9138 15.1266 24.1868 15.4375C23.0463 15.9249 21.8403 16.2031 20.6016 16.2646L18.4315 16.3723C17.5567 16.4157 16.8715 17.1359 16.8715 18.0117V19.3691C16.8715 20.2743 17.6078 21.0106 18.5129 21.0106H20.417C20.4729 21.0106 20.5183 21.056 20.5183 21.1118V30.8188H19.2573V30.8187C17.9418 30.8186 16.8716 31.8889 16.8716 33.2045ZM21.2067 32.1955C21.587 32.1955 21.8952 31.8873 21.8952 31.507V21.1116C21.8953 20.2966 21.2321 19.6335 20.417 19.6335H18.5129C18.367 19.6335 18.2484 19.5149 18.2484 19.369V18.0116C18.2484 17.8705 18.3589 17.7544 18.4998 17.7474L20.6698 17.6398C22.0716 17.5702 23.437 17.2552 24.7278 16.7035C25.0326 16.5732 25.3662 16.6032 25.643 16.7859C25.9197 16.9685 26.0785 17.2635 26.0785 17.5952V31.507C26.0785 31.8873 26.3867 32.1955 26.7669 32.1955H28.7163C29.2726 32.1955 29.7253 32.6481 29.7253 33.2045V33.8955C29.7253 34.4518 29.2726 34.9044 28.7163 34.9044H19.2573C18.7011 34.9044 18.2484 34.4518 18.2484 33.8955V33.2045C18.2484 32.6481 18.7011 32.1955 19.2573 32.1955H21.2067Z" fill="black"/>
</svg>
