<svg width="47" height="60" viewBox="0 0 47 60" fill="none" xmlns="http://www.w3.org/2000/svg">
<path d="M0 26H47V36H0V26Z" fill="none"/>
<path d="M10.218 25.6614L15.6966 19.0703C16.0069 18.697 15.9558 18.1429 15.5825 17.8326C15.2094 17.5224 14.6551 17.5735 14.3447 17.9467L9.64857 23.5965L8.62213 21.9291C8.36771 21.5158 7.82642 21.3868 7.41287 21.6414C6.99955 21.896 6.87076 22.4374 7.12517 22.8506L8.79345 25.5603C9.10892 26.0724 9.83385 26.1236 10.218 25.6614Z" fill="white"/>
<path d="M7.12563 34.452L8.79391 37.1618C9.10914 37.6739 9.83407 37.7251 10.2182 37.2628L15.6968 30.6717C16.0072 30.2983 15.9561 29.7443 15.5827 29.434C15.2096 29.1238 14.6553 29.1747 14.345 29.5481L9.64879 35.1978L8.62235 33.5305C8.36793 33.1172 7.82665 32.9881 7.41309 33.2428C6.99989 33.4974 6.8711 34.0388 7.12563 34.452Z" fill="white"/>
<path d="M7.12563 46.1317L8.79391 48.8414C9.10914 49.3536 9.83407 49.4048 10.2182 48.9425L15.6968 42.3514C16.0072 41.978 15.9561 41.424 15.5827 41.1136C15.2096 40.8034 14.6553 40.8544 14.345 41.2278L9.64879 46.8775L8.62235 45.2102C8.36793 44.7968 7.82665 44.6679 7.41309 44.9225C6.99989 45.1771 6.8711 45.7185 7.12563 46.1317Z" fill="white"/>
<path d="M45.9961 44.813C45.5107 44.813 45.1172 45.2064 45.1172 45.6919V56.8944C45.1172 57.6375 44.5126 58.2421 43.7695 58.2421H3.10547C2.36238 58.2421 1.75781 57.6375 1.75781 56.8944V18.376C1.75781 17.8905 1.3643 17.4971 0.878906 17.4971C0.393516 17.4971 0 17.8905 0 18.376V56.8944C0 58.6068 1.39312 59.9999 3.10547 59.9999H43.7695C45.4819 59.9999 46.875 58.6068 46.875 56.8944V45.6919C46.875 45.2065 46.4815 44.813 45.9961 44.813Z" fill="white"/>
<path d="M43.7695 6.77238H39.4702V3.14062C39.4702 1.40895 38.0613 0 36.3295 0C34.5977 0 33.1889 1.40883 33.1889 3.14062V6.77238H26.5781V3.14062C26.5781 1.40883 25.1692 0 23.4375 0C21.7058 0 20.2969 1.40883 20.2969 3.14062V6.77238H13.686V3.14062C13.686 1.40895 12.2771 0 10.5454 0C8.81367 0 7.40473 1.40883 7.40473 3.14062V6.77238H3.10547C1.39312 6.77238 0 8.16551 0 9.87785V19.0792C0 19.5647 0.393516 19.9581 0.878906 19.9581C1.3643 19.9581 1.75781 19.5647 1.75781 19.0792V9.87785C1.75781 9.13477 2.36238 8.5302 3.10547 8.5302H7.40473V9.92578C7.40473 11.6575 8.81355 13.0664 10.5454 13.0664C12.2771 13.0664 13.686 11.6576 13.686 9.92578V8.5302H20.2969V9.92578C20.2969 11.6575 21.7057 13.0664 23.4375 13.0664C25.1693 13.0664 26.5781 11.6576 26.5781 9.92578V8.5302H33.189V9.92578C33.189 11.6575 34.5979 13.0664 36.3296 13.0664C38.0613 13.0664 39.4703 11.6576 39.4703 9.92578V8.5302H43.7695C44.5126 8.5302 45.1172 9.13477 45.1172 9.87785V46.3951C45.1172 46.8806 45.5107 47.274 45.9961 47.274C46.4815 47.274 46.875 46.8806 46.875 46.3951V9.87785C46.875 8.16551 45.4819 6.77238 43.7695 6.77238ZM11.9283 9.92578C11.9283 10.6883 11.308 11.3086 10.5455 11.3086C9.78305 11.3086 9.16266 10.6883 9.16266 9.92578C9.16266 8.05231 9.16266 3.72703 9.16266 3.14062C9.16266 2.37809 9.78293 1.75781 10.5455 1.75781C11.308 1.75781 11.9283 2.37809 11.9283 3.14062V9.92578ZM24.8203 9.92578C24.8203 10.6883 24.2 11.3086 23.4375 11.3086C22.675 11.3086 22.0547 10.6883 22.0547 9.92578C22.0547 8.05231 22.0547 3.72703 22.0547 3.14062C22.0547 2.37809 22.675 1.75781 23.4375 1.75781C24.2 1.75781 24.8203 2.37809 24.8203 3.14062V9.92578ZM37.7125 9.92578C37.7125 10.6883 37.0922 11.3086 36.3296 11.3086C35.5671 11.3086 34.9468 10.6883 34.9468 9.92578C34.9468 8.05231 34.9468 3.72703 34.9468 3.14062C34.9468 2.37809 35.5671 1.75781 36.3296 1.75781C37.0921 1.75781 37.7125 2.37809 37.7125 3.14062V9.92578Z" fill="white"/>
<path d="M19.4227 26.3887H37.9384C39.4569 26.3887 40.6923 25.1533 40.6923 23.6348C40.6923 22.1163 39.4569 20.8809 37.9384 20.8809H19.4227C17.9042 20.8809 16.6688 22.1163 16.6688 23.6348C16.6688 25.1533 17.9042 26.3887 19.4227 26.3887ZM19.4227 22.6387H37.9384C38.4876 22.6387 38.9345 23.0855 38.9345 23.6348C38.9345 24.184 38.4876 24.6309 37.9384 24.6309H19.4227C18.8735 24.6309 18.4266 24.184 18.4266 23.6348C18.4266 23.0855 18.8735 22.6387 19.4227 22.6387Z" fill="white"/>
<path d="M19.4227 38.0151H37.9384C39.4569 38.0151 40.6923 36.7797 40.6923 35.2612C40.6923 33.7427 39.4569 32.5073 37.9384 32.5073H19.4227C17.9042 32.5073 16.6688 33.7427 16.6688 35.2612C16.6688 36.7797 17.9042 38.0151 19.4227 38.0151ZM19.4227 34.2651H37.9384C38.4876 34.2651 38.9345 34.712 38.9345 35.2612C38.9345 35.8105 38.4876 36.2573 37.9384 36.2573H19.4227C18.8735 36.2573 18.4266 35.8105 18.4266 35.2612C18.4266 34.712 18.8735 34.2651 19.4227 34.2651Z" fill="white"/>
<path d="M19.4227 49.6416H37.9384C39.4569 49.6416 40.6923 48.4062 40.6923 46.8877C40.6923 45.3692 39.4569 44.1338 37.9384 44.1338H19.4227C17.9042 44.1338 16.6688 45.3692 16.6688 46.8877C16.6688 48.4062 17.9042 49.6416 19.4227 49.6416ZM19.4227 45.8916H37.9384C38.4876 45.8916 38.9345 46.3384 38.9345 46.8877C38.9345 47.437 38.4876 47.8838 37.9384 47.8838H19.4227C18.8735 47.8838 18.4266 47.437 18.4266 46.8877C18.4266 46.3384 18.8735 45.8916 19.4227 45.8916Z" fill="white"/>
</svg>
