<svg width="90" height="90" viewBox="0 0 90 90" fill="none" xmlns="http://www.w3.org/2000/svg">
<path d="M89.9407 13.4223C89.8663 13.1653 89.724 12.933 89.5289 12.7499C89.3337 12.5667 89.0929 12.4395 88.8316 12.3815L79.6814 10.3142L77.6142 1.16403C77.5555 0.90345 77.4279 0.66342 77.2447 0.468991C77.0615 0.274562 76.8295 0.132865 76.5729 0.0586883C76.3163 -0.015488 76.0445 -0.0194228 75.7859 0.0472948C75.5272 0.114012 75.2912 0.248936 75.1025 0.437982L64.5787 10.9635C55.6733 5.58974 45.109 3.66142 34.8794 5.54243C24.6498 7.42344 15.4625 12.9837 9.0512 21.1738C2.63993 29.364 -0.551835 39.6176 0.0782494 49.9996C0.708334 60.3816 5.11669 70.1739 12.4714 77.5286C19.8261 84.8833 29.6184 89.2917 40.0004 89.9218C50.3824 90.5518 60.636 87.3601 68.8261 80.9488C77.0163 74.5375 82.5765 65.3502 84.4575 55.1206C86.3385 44.891 84.4102 34.3266 79.0364 25.4212L89.5645 14.8932C89.7529 14.704 89.8872 14.4678 89.9534 14.2091C90.0196 13.9504 90.0152 13.6787 89.9407 13.4223ZM82.1718 47.4252C82.1706 56.1417 79.293 64.6142 73.9853 71.5284C68.6776 78.4426 61.2365 83.4119 52.8164 85.6656C44.3963 87.9192 35.4678 87.3312 27.4159 83.9928C19.3641 80.6543 12.639 74.752 8.28392 67.2015C3.92882 59.6509 2.18715 50.8742 3.32909 42.2329C4.47104 33.5915 8.43275 25.5685 14.5997 19.4084C20.7666 13.2483 28.794 9.29556 37.4367 8.16324C46.0793 7.03093 54.8541 8.78238 62.3997 13.1459L57.5665 17.9791C57.525 18.0263 57.4865 18.0762 57.4514 18.1284C50.4726 14.5754 42.4555 13.6282 34.8409 15.4569C27.2264 17.2857 20.5137 21.7704 15.9096 28.1051C11.3055 34.4398 9.11188 42.2089 9.72296 50.0162C10.334 57.8234 13.7098 65.1566 19.2434 70.6978C24.7771 76.239 32.1057 79.6247 39.9121 80.2464C47.7185 80.8681 55.4906 78.685 61.8315 74.0895C68.1724 69.4941 72.6663 62.7875 74.5054 55.1755C76.3445 47.5634 75.4082 39.5449 71.8647 32.5614C71.9196 32.5226 71.9718 32.4802 72.0209 32.4343L76.854 27.6011C80.3443 33.6244 82.179 40.4638 82.1718 47.4252ZM68.3215 32.3123C71.9882 38.5716 73.2482 45.9527 71.8658 53.074C70.4833 60.1953 66.5532 66.5688 60.8109 71.0016C55.0686 75.4344 47.9077 77.6228 40.6685 77.1572C33.4292 76.6915 26.6077 73.6037 21.4806 68.4717C16.3536 63.3398 13.2724 56.5153 12.8137 49.2756C12.355 42.0358 14.5503 34.877 18.9886 29.139C23.427 23.401 29.8042 19.477 36.9269 18.1014C44.0495 16.7258 51.4293 17.9929 57.6851 21.6656L59.2575 28.6309L57.7491 30.1392C53.2509 26.1892 47.3928 24.1433 41.4135 24.4341C35.4342 24.7249 29.8023 27.3296 25.7087 31.6976C21.615 36.0655 19.3804 41.8542 19.4774 47.8398C19.5743 53.8254 21.9953 59.5387 26.2283 63.7717C30.4613 68.0047 36.1746 70.4256 42.1602 70.5226C48.1458 70.6196 53.9345 68.385 58.3024 64.2913C62.6703 60.1976 65.275 54.5658 65.5658 48.5864C65.8566 42.6071 63.8107 36.7491 59.8607 32.2508L61.3691 30.7424L68.3215 32.3123ZM48.0768 39.8116C46.1532 38.4182 43.7752 37.8009 41.4167 38.0825C39.0582 38.3641 36.8924 39.524 35.351 41.3311C33.8095 43.1382 33.0055 45.4598 33.0993 47.8332C33.193 50.2066 34.1776 52.4575 35.8568 54.1374C37.536 55.8172 39.7865 56.8027 42.1599 56.8974C44.5332 56.9921 46.8551 56.1891 48.6628 54.6484C50.4706 53.1076 51.6314 50.9423 51.9139 48.584C52.1965 46.2256 51.5801 43.8474 50.1875 41.9232L57.7448 34.3658C61.131 38.2998 62.8604 43.3932 62.5695 48.5757C62.2786 53.7581 59.9901 58.626 56.185 62.1563C52.3799 65.6867 47.3544 67.6045 42.1647 67.5068C36.975 67.4091 32.0253 65.3034 28.3557 61.6324C24.6862 57.9613 22.5825 53.0107 22.4869 47.821C22.3913 42.6313 24.3112 37.6066 27.843 33.8029C31.3749 29.9992 36.2437 27.7126 41.4263 27.4238C46.6088 27.135 51.7015 28.8665 55.6341 32.2542L48.0768 39.8116Z" fill="#F5F5F5"/>
</svg>
