<svg width="15" height="13" viewBox="0 0 15 13" fill="none" xmlns="http://www.w3.org/2000/svg">
<path d="M11.0156 0C10.2017 0 9.45542 0.253212 8.79765 0.752619C8.16703 1.2314 7.74718 1.84123 7.5 2.28466C7.25282 1.8412 6.83297 1.2314 6.20235 0.752619C5.54458 0.253212 4.79833 0 3.98438 0C1.71293 0 0 1.82394 0 4.24266C0 6.85572 2.137 8.64353 5.37214 11.35C5.92151 11.8097 6.54422 12.3306 7.19145 12.8863C7.27676 12.9596 7.38633 13 7.5 13C7.61367 13 7.72324 12.9596 7.80856 12.8863C8.45584 12.3306 9.07852 11.8096 9.62821 11.3497C12.863 8.64353 15 6.85572 15 4.24266C15 1.82394 13.2871 0 11.0156 0Z" fill="white"/>
</svg>
