<svg width="30" height="20" viewBox="0 0 30 20" fill="none" xmlns="http://www.w3.org/2000/svg">
<path d="M0.937478 2.26464H29.0625C29.58 2.26464 30 1.75731 30 1.13232C30 0.507239 29.58 0 29.0625 0H0.937478C0.419956 0 0 0.507333 0 1.13232C0 1.75731 0.420034 2.26464 0.937478 2.26464Z" fill="#CC1701"/>
<path d="M29.0625 8.86768H0.937478C0.419956 8.86768 0 9.37501 0 10C0 10.625 0.420034 11.1323 0.937478 11.1323H29.0625C29.58 11.1323 30 10.625 30 10C30 9.37501 29.58 8.86768 29.0625 8.86768Z" fill="#CC1701"/>
<path d="M29.0623 17.7354H10.3122C9.79471 17.7354 9.37476 18.2427 9.37476 18.8677C9.37476 19.4928 9.79479 20 10.3122 20H29.0623C29.5798 20 29.9997 19.4927 29.9997 18.8677C29.9998 18.2426 29.5798 17.7354 29.0623 17.7354Z" fill="#CC1701"/>
</svg>
