<svg width="180" height="119" viewBox="0 0 180 119" fill="none" xmlns="http://www.w3.org/2000/svg">
<g clip-path="url(#clip0)">
<path d="M0 116.971C0.155567 116.633 0.273797 116.287 0.569374 116.036C0.85466 115.773 1.22652 115.622 1.61478 115.614H178.146C179.152 115.614 179.793 116.105 179.97 117.016C180.011 117.243 180.004 117.475 179.951 117.699C179.898 117.923 179.8 118.134 179.663 118.319C179.526 118.504 179.352 118.658 179.153 118.774C178.954 118.889 178.733 118.962 178.505 118.989C178.319 119.004 178.133 119.009 177.947 119.005H2.08615C0.841616 119.005 0.435587 118.723 0 117.573V116.971Z" fill="#CC1701"/>
<path d="M107.173 0C107.201 0.102784 107.291 0.0607357 107.355 0.076309C107.771 0.17028 108.137 0.417716 108.38 0.769437C108.623 1.12116 108.724 1.55141 108.665 1.97469C108.61 2.38479 108.407 2.76041 108.093 3.02985C107.779 3.29929 107.378 3.44368 106.964 3.43546C95.6671 3.43546 84.3693 3.43546 73.071 3.43546C72.1734 3.43546 71.4422 2.82655 71.3458 2.00584C71.2338 1.04808 71.7674 0.283433 72.6946 0.0731943C72.749 0.0607357 72.8237 0.0872103 72.8423 0L107.173 0Z" fill="#CC1701"/>
<path d="M90.0221 20.4275C115.957 20.4275 141.891 20.4275 167.824 20.4275C168.465 20.4275 169.042 20.5505 169.448 21.0862C169.645 21.3395 169.767 21.6435 169.799 21.963C169.83 22.2825 169.771 22.6045 169.628 22.8917C169.484 23.1789 169.263 23.4196 168.988 23.586C168.714 23.7523 168.398 23.8376 168.078 23.8318C161.435 23.8318 154.793 23.8287 148.151 23.8225C147.815 23.8225 147.73 23.9019 147.73 24.2414C147.739 51.1551 147.739 78.0688 147.73 104.983C147.73 105.356 147.834 105.417 148.179 105.417C154.784 105.407 161.389 105.407 167.994 105.417C169.03 105.417 169.776 106.088 169.804 107.043C169.834 108.033 169.14 108.756 168.093 108.826C167.983 108.826 167.871 108.826 167.759 108.826C115.915 108.826 64.0709 108.826 12.2278 108.826C11.4718 108.826 10.8199 108.652 10.4186 107.952C9.7512 106.792 10.5866 105.412 11.954 105.412H29.9438C30.6283 105.412 31.3112 105.401 31.9957 105.412C32.2275 105.412 32.3162 105.35 32.2804 105.123C32.2757 105.061 32.2757 104.998 32.2804 104.936C32.2804 78.0595 32.2804 51.1831 32.2804 24.3068C32.2804 23.9346 32.215 23.8178 31.8137 23.8193C25.1834 23.8328 18.5537 23.836 11.9245 23.8287C11.5424 23.8406 11.1676 23.722 10.8618 23.4925C10.5559 23.263 10.3371 22.9362 10.2412 22.5657C10.1492 22.2078 10.1752 21.8298 10.3154 21.4879C10.4555 21.1461 10.7024 20.8588 11.0191 20.6689C11.2908 20.5155 11.597 20.4336 11.9089 20.4306C12.0334 20.4306 12.1578 20.4306 12.2823 20.4306L90.0221 20.4275ZM66.2359 64.6135C66.2359 51.1572 66.2385 37.7003 66.2437 24.2429C66.2437 23.9097 66.1706 23.8178 65.8268 23.8193C59.3085 23.8308 52.7908 23.8308 46.2736 23.8193C45.9298 23.8193 45.8551 23.9097 45.8551 24.2429C45.8645 51.1567 45.8645 78.0709 45.8551 104.986C45.8551 105.314 45.922 105.415 46.272 105.414C52.7758 105.404 59.281 105.404 65.7879 105.414C66.1752 105.414 66.2437 105.311 66.2437 104.947C66.2344 91.5039 66.2318 78.0595 66.2359 64.6135ZM100.195 64.6135C100.195 51.1561 100.197 37.6988 100.202 24.2414C100.202 23.9143 100.135 23.8147 99.787 23.8162C93.2687 23.8277 86.751 23.8277 80.2338 23.8162C79.8947 23.8162 79.8138 23.9003 79.8138 24.2367C79.8221 51.1525 79.8221 78.0673 79.8138 104.981C79.8138 105.305 79.8729 105.412 80.2276 105.412C86.7334 105.4 93.2387 105.4 99.7434 105.412C100.125 105.412 100.21 105.316 100.21 104.945C100.194 91.5054 100.188 78.0626 100.195 64.6166V64.6135ZM113.78 64.6135C113.78 78.0709 113.78 91.5283 113.78 104.986C113.78 105.306 113.835 105.419 114.192 105.419C120.711 105.406 127.229 105.406 133.747 105.419C134.088 105.419 134.169 105.331 134.169 104.995C134.159 78.0802 134.159 51.1655 134.169 24.2507C134.169 23.9268 134.108 23.8225 133.757 23.824C127.251 23.8354 120.745 23.8354 114.239 23.824C113.869 23.824 113.772 23.905 113.772 24.2819C113.783 37.7226 113.785 51.1655 113.78 64.6104V64.6135Z" fill="#CC1701"/>
<path d="M89.9982 13.6314H39.2197C38.3609 13.6314 37.7387 13.2467 37.4742 12.5553C37.3803 12.3075 37.3452 12.0413 37.3715 11.7776C37.3978 11.5139 37.4849 11.26 37.6259 11.0357C37.7669 10.8114 37.9579 10.6229 38.184 10.485C38.41 10.3471 38.665 10.2636 38.9287 10.2411C39.0516 10.2302 39.1776 10.2333 39.3021 10.2333H140.711C141.906 10.2333 142.673 10.9435 142.636 12.0165C142.622 12.4178 142.464 12.8007 142.191 13.095C141.919 13.3894 141.549 13.5754 141.15 13.6189C141.002 13.6309 140.853 13.6351 140.704 13.6314H89.9982Z" fill="#CC1701"/>
</g>
<defs>
<clipPath id="clip0">
<rect width="180" height="119" fill="white"/>
</clipPath>
</defs>
</svg>
